<svg width="24" height="24" viewBox="0 0 24 24" fill="none" xmlns="http://www.w3.org/2000/svg"><path d="M17.42 6.3a5.57 5.57 0 0 0-2.6-1.46 5.42 5.42 0 0 0-4.22.6l2.84 2.85c.67.66-.35 1.63-1 1l-2.98-3c-.67.68-1.91 2.76-2.4 3.57l2.4 2.4c.67.67-.35 1.64-.99 1l-2.14-2.14c-.54.95-1.13 1.98-2.13 3.83l1.29 1.3c.66.66-.35 1.63-1 .99l-.99-1C2.27 18.54.95 21.27.08 22.98A.7.7 0 0 0 .7 24c.44 0 9.02-4.93 9.4-5.14l-1.58-1.58c-.66-.65.33-1.65.99-1l1.86 1.86a95.45 95.45 0 0 0 3.73-2.23l-2.6-2.6c-.66-.66.33-1.66.99-1l2.81 2.81c1.63-1.12 2.55-2.32 2.72-4.37a5.65 5.65 0 0 0-1.6-4.45Zm4.56-1.62A2.11 2.11 0 0 0 19 1.76a2.11 2.11 0 0 0-4.19.35v1.27a6.98 6.98 0 0 1 5.52 5.52h1.56a2.1 2.1 0 0 0 .1-4.22Z" fill="#C5CBD1"/></svg>