<svg width="40" height="40" viewBox="0 0 40 40" xmlns="http://www.w3.org/2000/svg">
  <path fill="currentColor" fill-rule="evenodd" clip-rule="evenodd" d="M27.27 15.61a2.62 2.62 0 0 1-3.72 0 2.62 2.62 0 0 1 0-3.73 2.64 2.64 0 0 1 3.72 3.73Zm-1.86-2.94a1.07 1.07 0 0 0-.76 1.84 1.07 1.07 0 0 0 1.52 0 1.07 1.07 0 0 0 0-1.52 1.09 1.09 0 0 0-.76-.32Zm.51 8.83a2.37 2.37 0 0 1-3.36 0 2.38 2.38 0 1 1 3.36 0ZM24.24 19a.81.81 0 1 0 0 1.63.81.81 0 0 0 0-1.63Zm-4.08-2.15h-1.1c-.84 0-1.53-.69-1.53-1.54v-1.08c0-.85.7-1.54 1.54-1.54h1.09c.84 0 1.53.69 1.53 1.54v1.08c0 .85-.69 1.54-1.53 1.54Zm-.03-2.6h-1.04v1.04h1.04v-1.04Z"/>
  <path fill="currentColor" fill-rule="evenodd" clip-rule="evenodd" d="M39.87 33.8 35 26.3a.78.78 0 0 0-.66-.36h-6.45l4.21-15.72c.25-.93 0-1.89-.68-2.57a2.63 2.63 0 0 0-2.57-.68l-18.48 4.95a3.43 3.43 0 0 0-2.23 4.76 29.04 29.04 0 0 0 6.74 9.26h-8.5V4.69h27.18v15.78a.78.78 0 0 0 1.56 0V4.23l1.14-1.14a.78.78 0 0 0 .23-.55V.78A.78.78 0 0 0 35.7 0H4.22a.78.78 0 0 0-.78.78v1.76c0 .2.08.4.22.55L4.8 4.23v22.26l-4.68 7.3a.78.78 0 0 0-.12.43v5c0 .43.35.78.78.78h38.44c.43 0 .78-.35.78-.78v-5a.8.8 0 0 0-.13-.43ZM29.25 8.47a1.08 1.08 0 0 1 1.05.28c.28.28.39.67.29 1.05l-4.46 16.62a2.81 2.81 0 0 0-1.82-.66h-.26c-.83 0-1.51-.68-1.51-1.51 0-1.7-1.38-3.07-3.08-3.07a1.5 1.5 0 0 1-1.51-1.5c0-1.7-1.38-3.07-3.08-3.07-.84 0-1.52-.68-1.52-1.5 0-.84-.33-1.6-.87-2.15l16.77-4.5Zm-19.7 5.96c-.23.5-.23 1.08 0 1.59A27.48 27.48 0 0 0 23.04 29.5a1.87 1.87 0 0 0 2.53-1.01 1.26 1.26 0 0 0-1.26-1.17h-.26a3.08 3.08 0 0 1-3.07-3.07c0-.83-.68-1.5-1.52-1.5a3.08 3.08 0 0 1-3.08-3.07c0-.83-.68-1.51-1.51-1.51a3.08 3.08 0 0 1-3.08-3.07c0-.81-.65-1.47-1.46-1.5-.34.19-.6.48-.78.83ZM5 1.56h29.92v.66l-.91.9H5.9L5 2.23v-.66ZM3.28 31.88h-.07l-1 1.56h35.57L33.9 27.5h-6.45l-.32 1.2a3.43 3.43 0 0 1-4.75 2.23 29.02 29.02 0 0 1-5.67-3.43H6.01l-1.8 2.81h9.93a.78.78 0 1 1 0 1.57H3.28ZM21.26 35a1.48 1.48 0 0 1-2.52 0h2.52Zm-19.7 0v3.44h36.88V35h-15.5a3.05 3.05 0 0 1-5.88 0H1.56Z"/>
  <path fill="currentColor" d="M18.05 31.1a.79.79 0 0 0-.78-.79.79.79 0 0 0-.78.78.79.79 0 0 0 .78.79.79.79 0 0 0 .78-.79Zm16.28-8.29a.79.79 0 0 0-.78.78.79.79 0 0 0 .78.79.79.79 0 0 0 .78-.79.79.79 0 0 0-.78-.78Z"/>
</svg>