<svg width="24" height="19" viewBox="0 0 24 19" fill="none" xmlns="http://www.w3.org/2000/svg"><path fill-rule="evenodd" clip-rule="evenodd" d="m.83 3.05 22.44 2.1c.4.04.7.36.7.75v11.63a.76.76 0 0 1-.77.76l-8.47-.79L.69 16.2a.76.76 0 0 1-.69-.76v-3.45c0-.42.34-.76.76-.76a1.5 1.5 0 0 0 0-2.97A.76.76 0 0 1 0 7.5V3.8c0-.44.38-.79.83-.75Zm5.79 7.5a1.77 1.77 0 1 0 3.55 0 1.77 1.77 0 0 0-3.55 0Zm8.78 4.3a.86.86 0 1 1 0-1.72.86.86 0 0 1 0 1.73Zm-.64-5.58a1.77 1.77 0 1 0 3.54 0 1.77 1.77 0 0 0-3.54 0Z" fill="#C5CBD1"/><path d="M21.14 3.43c.6.06 1.01-.6.68-1.12L20.58.35a.76.76 0 0 0-.75-.34L8.72 1.78c-.3.04-.28.47.02.5l12.4 1.15Z" fill="#C5CBD1"/></svg>