<svg width="16" height="16" viewBox="0 0 16 16" fill="none" xmlns="http://www.w3.org/2000/svg"><path d="M6.82 4.68a.8.8 0 0 0-.08-.32c-.53.06-1.06.16-1.55.29v.03a.82.82 0 0 0 1.63 0Z" fill="#000"/><path fill-rule="evenodd" clip-rule="evenodd" d="M13.37 5.43c-.32 0-.63-.08-.92-.22a6.99 6.99 0 0 0-.74-.31 1.23 1.23 0 0 1-2.43-.22v-.33a10.9 10.9 0 0 0-1.7-.06c.04.13.06.26.06.4a1.63 1.63 0 0 1-3.25.22 6.5 6.5 0 0 0-.75.3c-.27.14-.58.21-.9.21H2.7L3.55 7v4.22a1.23 1.23 0 0 0 2.42.28l1.72 3.24a.4.4 0 0 0 .72 0l1.23-2.34a1.63 1.63 0 0 1-2-1.59 1.64 1.64 0 0 1 3.16-.57l2.6-4.83h-.03ZM7.23 8.77C6.55 8.77 6 8.22 6 7.55a.4.4 0 1 1 .82 0 .4.4 0 0 0 .82 0 .4.4 0 1 1 .82 0c0 .67-.55 1.22-1.23 1.22Zm2.05-1.63a.4.4 0 1 0 .81 0 .4.4 0 0 0-.81 0Z" fill="#000"/><path d="M9.27 10a.82.82 0 1 0 0 1.64.82.82 0 0 0 0-1.64Zm5.19-6.07c.3-.6.06-1.34-.54-1.65A13.97 13.97 0 0 0 8.05 1C6 1 3.76 1.5 2.18 2.28c-.6.3-.85 1.04-.55 1.65.3.59 1.05.84 1.65.55a11.54 11.54 0 0 1 6.81-.84v1.04a.4.4 0 1 0 .82 0v-.87c.7.17 1.37.4 1.9.67.61.3 1.35.06 1.65-.55Z" fill="#000"/></svg>