<svg width="24" height="24" viewBox="0 0 24 24" fill="none" xmlns="http://www.w3.org/2000/svg"><path d="M19.74 4.26C18.46 2.98 14.16-1.1 12.78.28c-1.38 1.39 2.7 5.68 3.98 6.96 1.28 1.29 5.57 5.36 6.96 3.98 1.38-1.38-2.7-5.68-3.98-6.96Zm-11.46.53a10.82 10.82 0 0 0-2.63 11.13c.03.1.1.2.17.27l1.99 2a.7.7 0 0 0 .27.16c3.94 1.31 8.2.3 11.13-2.63l2.94-2.93c-1.63-.4-3.74-1.9-6.39-4.55-2.64-2.65-4.14-4.76-4.55-6.39L8.28 4.8ZM4.42 16.6l-1.2 1.21H2.11a2.1 2.1 0 0 0-.12 4.2A2.1 2.1 0 0 0 4.1 24a2.1 2.1 0 0 0 2.1-2.1v-1.12l1.22-1.2c-.22-.1-.43-.23-.6-.4l-1.99-2c-.17-.16-.3-.37-.4-.59Z" fill="#C5CBD1"/></svg>