<svg width="24" height="21" viewBox="0 0 24 21" fill="none" xmlns="http://www.w3.org/2000/svg"><path d="M22.86 1.29a1.21 1.21 0 1 0-1.7 1.73s.4.47.37 1.35c-.02.39-.13.96-.5 1.7a4.93 4.93 0 0 1 1.8 1.73 7.11 7.11 0 0 0 1.12-3.33 4.26 4.26 0 0 0-1.1-3.18ZM18.27 7a5.4 5.4 0 0 0-4.26 2.1c-4.79 6.69-9.63 7.03-12.18 7.03h-.78c-.89 0-1.26.06-.93.73.8 1.57 4.42 3.49 8.88 3.49 3.58 0 7.7-1.25 11.32-4.93 1.82-1.86 2.5-5.59.64-7.4A3.76 3.76 0 0 0 18.27 7Z" fill="#C5CBD1"/><path d="M3.1 12.93c-.08-1.18.14-3.86 3.65-5.37 0 0-1.3 3.16.47 4.76A6.04 6.04 0 0 0 9.49 8.1C9.76 3.54 6.58 1.14 4.51.07a.55.55 0 0 0-.76.73c.8 1.7 1.34 4.73-2.08 8.26-1.05 1.08-.2 3.06 1.44 3.87Z" fill="#C5CBD1"/></svg>