<svg width="40" height="40" fill="none" xmlns="http://www.w3.org/2000/svg"><g fill="currentColor"><path d="M18.16 30.5a.78.78 0 1 0 1.1 1.1.78.78 0 0 0-1.1-1.1Z"/><path fill-rule="evenodd" clip-rule="evenodd" d="m32.27 24.1 5.93 5.04a3.9 3.9 0 0 1 .61 6.02l-2.18 2.18c-3.34 3.35-8.06 3.15-12.5 1.53-4.49-1.64-9.38-4.97-13.78-9.37-4.3-4.3-7.56-9.06-9.2-13.41C-.74 11-.3 6.86 2.47 4.1l2.31-2.32.65-.65a3.9 3.9 0 0 1 6.05.65l4.28 5.95.03.04c.99 1.56.77 3.55-.54 4.86l-3.23 3.23a.78.78 0 0 0-.17.85l.05.16c.08.26.7 2.06 2.43 4.33a21.2 21.2 0 0 0 8.91 6.76c.3.12.63.05.86-.17l3.23-3.24a3.88 3.88 0 0 1 4.95-.47Zm4.95 6.26-5.92-5.04a2.33 2.33 0 0 0-2.88.35l-.98.98 10.1 7.57.17-.16a2.34 2.34 0 0 0-.49-3.7ZM10.16 2.65l.03.03 4.28 5.96c.58.93.45 2.12-.33 2.9l-.96.95L6.34 2.43l.19-.18a2.34 2.34 0 0 1 3.63.4Zm1.3 25.75c4.24 4.24 8.93 7.44 13.2 9 3.25 1.18 7.76 1.94 10.87-1.16l.9-.9-10.1-7.57-1.14 1.13c-.67.67-1.67.87-2.55.51-5-2.07-8.06-5.22-9.74-7.5-1.15-1.54-2.28-3.64-2.53-4.66a2.33 2.33 0 0 1 .53-2.48l1.16-1.16L5.22 3.56 3.57 5.2c-2.9 2.9-2.12 7.22-.95 10.33 1.55 4.15 4.7 8.71 8.84 12.86Z"/><path d="M16.7 28.63c-.83-.72-2.26-1.97-3-2.74a51.35 51.35 0 0 1-4.93-5.85.78.78 0 1 0-1.29.89 52.9 52.9 0 0 0 5.1 6.05c.79.81 2.23 2.07 3.09 2.82a.78.78 0 0 0 1.03-1.17Z"/></g></svg>