<svg width="80" height="76" viewBox="0 0 80 76" fill="none" xmlns="http://www.w3.org/2000/svg"><path d="M9 43.38V33.7c0-2.05 1.8-3.7 4-3.7s4 1.65 4 3.7v16.6c0 2.05-1.8 3.7-4 3.7s-4-1.65-4-3.7V48" stroke="#000" stroke-width="2" stroke-linecap="round"/><path d="M9 34a8 8 0 1 0 0 16" stroke="#000" stroke-width="2"/><path d="M71 43.38V33.7c0-2.04-1.8-3.69-4-3.69s-4 1.65-4 3.7v16.6c0 2.05 1.8 3.7 4 3.7s4-1.65 4-3.7V48" stroke="#000" stroke-width="2" stroke-linecap="round"/><path d="M71 34a8 8 0 1 1 0 16" stroke="#000" stroke-width="2"/><path d="M14 31c0-6.08 2.08-11.66 5.58-16.09L18 13.67A27.88 27.88 0 0 0 12 31h2Zm46.44-16.08A25.94 25.94 0 0 1 66 31h2c0-6.53-2.24-12.55-6-17.31l-1.56 1.23Z" fill="#000"/><path d="M40.18 1C48.3 1 55.9 4.24 61.5 9.89a3 3 0 1 1-4.26 4.22A23.91 23.91 0 0 0 40.18 7c-6.5 0-12.57 2.59-17.05 7.11a3 3 0 0 1-4.26-4.22A29.91 29.91 0 0 1 40.18 1Z" stroke="#000" stroke-width="2"/><rect x="37" y="69" width="10" height="6" rx="3" stroke="#000" stroke-width="2"/><path d="M67 54a18 18 0 0 1-18 18h-2" stroke="#000" stroke-width="2"/><path d="M41 55a15 15 0 1 0-11.34-5.18L27 59l8.9-4.9c1.59.59 3.3.9 5.1.9Z" stroke="#000" stroke-width="2" stroke-linejoin="round"/><circle cx="34" cy="40" r="2" fill="#E52D2D"/><circle cx="40" cy="40" r="2" fill="#E52D2D"/><circle cx="46" cy="40" r="2" fill="#E52D2D"/></svg>