<svg width="64" height="65" viewBox="0 0 64 65" fill="none" xmlns="http://www.w3.org/2000/svg"><circle cx="10" cy="38" r="2" fill="#000"/><circle cx="19" cy="38" r="2" fill="#000"/><circle cx="28" cy="38" r="2" fill="#000"/><circle cx="10" cy="46" r="2" fill="#000"/><circle cx="19" cy="46" r="2" fill="#000"/><circle cx="28" cy="46" r="2" fill="#000"/><circle cx="10" cy="54" r="2" fill="#000"/><circle cx="19" cy="54" r="2" fill="#000"/><circle cx="28" cy="54" r="2" fill="#000"/><path d="M27 9h6a4 4 0 0 1 4 4v47a4 4 0 0 1-4 4H5a4 4 0 0 1-4-4V13a4 4 0 0 1 4-4h6m26 5h2a2 2 0 0 1 2 2v28a2 2 0 0 1-2 2h-2V14Zm4 3h19a3 3 0 0 1 3 3v20a3 3 0 0 1-3 3H41V17Z" stroke="#000" stroke-width="2"/><path stroke="#000" stroke-width="2" d="M41 22h22v6H41z"/><path stroke="#E52D2D" stroke-width="2" stroke-linejoin="round" d="M11 1h16v12H11z"/><path d="M30 13H8" stroke="#000" stroke-width="2" stroke-linecap="round" stroke-linejoin="round"/><rect x="6" y="18" width="26" height="11" rx="1" stroke="#000" stroke-width="2"/></svg>