<svg viewBox="0 0 182 84" fill="none" xmlns="http://www.w3.org/2000/svg"><path fill-rule="evenodd" clip-rule="evenodd" d="M84.52 42.84a1.59 1.59 0 1 0 3.13-.54 34.9 34.9 0 0 1-.32-5.83c.05-.92.05-2 0-3.24-.27-9.72-.76-17.01-1.46-21.82-.7-4.97-2.97-8.85-8.1-8.37-2.32.22-3.24.65-3.83 3.19-.37 1.52-.33 3.29-.28 5.61v.22c.06 1.24.06 1.89.06 2 0 4.2.16 8.56.37 14.41v.28l.22 6.7c.17 2.31.17 4.85-.27 6.74-.21.87.27 1.68 1.14 1.9.86.2 1.67-.28 1.89-1.14.6-2.32.54-5.62.38-7.62-.06-.6-.17-3.78-.33-9.45.16.06.27.06.43.06.54 0 1.73.05 3.57.16 1.24.05 2.16.1 2.86.16l.05 1.49c.06 1.5.13 3.37.17 5.59.05 1.24.05 2.26 0 3.02-.06 1.89.05 4.54.32 6.48ZM3.36 44.62c.86.06 1.62-.6 1.67-1.46.38-4.37.43-9.34.27-14.9 4-1.13 6.48-3.02 7.5-5.67.93-2.6.71-7.5-.59-11.56-1.45-4.75-4.37-8.37-8.53-7.34-1.35.27-2.21.8-2.64 1.57-.17.21-.22.48-.22.75-.05.1-.05.27-.05.43v1.03c.05 1.42.1 2.07.5 7.06l.04.4c.91 12.09 1.13 21.43.59 28.02-.05.86.6 1.62 1.46 1.67Zm1.78-19.6c-.16-2.8-.38-6.26-.7-10.31-.43-4.76-.49-6-.54-7.35v-.54l.43-.1c.97-.22 1.89.1 2.7.97 1.73 1.89 2.97 5.99 3.19 9.82.21 3.9.1 5.84-5.08 7.5Zm19 19.06c-2.31.27-4.2.38-5.66.33-.87 0-1.51-.76-1.51-1.62 0-.87.75-1.52 1.62-1.52 1.18.06 2.64-.05 4.32-.21a62 62 0 0 1-.05-.76c-.05-.7-.11-1.65-.22-2.86-.42-4.77-.49-7.4-.49-12.52v-2.78c0-2.19.01-4.56.05-7.11.06-3.4.06-6 .06-7.83v-.1h-3.24a1.57 1.57 0 0 1 0-3.14h4.08c3.35 0 5.44-.02 6.23-.05.87 0 1.62.64 1.62 1.5 0 .87-.65 1.63-1.51 1.63-1.19.05-2.54.05-4.05.05v12.53c-.1 8.26-.1 12.37 0 12.37.05 1.02.16 2.75.38 5.18.14 1.25.2 2.3.24 3.16l.03.4a42.8 42.8 0 0 1 4.7-.32 1.57 1.57 0 0 1 0 3.13c-1.25 0-3.08.16-5.51.43-.22.11-.43.17-.7.17-.11 0-.22 0-.38-.06Zm16 .43c1.72.17 6.58.11 8.74-.1.86-.06 1.46-.87 1.4-1.73-.05-.87-.86-1.46-1.72-1.4-1.95.2-6.7.26-8.21.1h-.16l.48-2.54c.1-.38.19-.75.27-1.16l.16-.73.16-.65c.09-.4.17-.76.28-1.07.1-.5.16-.76.16-.87 1.46-6.48 3.56-14.2 6.42-23.22 0-.05.27-.65.87-1.83.48-1.14.65-2.11.48-2.97-.37-2.22-2.16-2.54-4.1-2.54-.49 0-1.35 0-2.6.05l-1.53.04c-1.56.03-2.5.06-2.84.02-.43-.06-.8.05-1.13.32-.38.27-.54.65-.6 1.08-.05.86.55 1.67 1.41 1.73.46.04 1.52.02 3.22-.02l1.59-.04c1.35-.05 2.16-.05 2.48-.05h.76c.05-.05.05-.05.1-.05.06 0 .11 0 .06.05l.08-.05c.05-.03.08-.04.08 0 .05.27-.05.59-.32 1.08-.37.82-.65 1.4-.83 1.77l-.2.44a267.02 267.02 0 0 0-6.43 23.54c-.04.05-.1.27-.18.65l-.03.16-.43 1.79c-.17.7-.27 1.3-.38 1.88a46.78 46.78 0 0 0-.6 2.87l-.02.18c-.04.36-.08.67-.08.9v.54c.16.86.64 1.35 1.35 1.56l.54.17c.37.05.8.1 1.3.1Zm26.72-.1c-2.16.21-7.02.27-8.75.1-.48 0-.91-.05-1.3-.1l-.53-.17c-.7-.21-1.19-.7-1.35-1.56v-.54c0-.23.04-.54.08-.9l.03-.18c.1-.7.32-1.68.59-2.86.1-.6.22-1.2.38-1.9l.43-1.78.04-.16c.08-.38.13-.6.18-.65 1.4-6.58 3.56-14.41 6.42-23.54l.2-.44c.18-.37.47-.95.83-1.77.27-.5.38-.81.32-1.08 0-.04-.03-.03-.08 0l-.08.05c.05-.05 0-.05-.05-.05-.06 0-.06 0-.11.05h-.76c-.32 0-1.13 0-2.48.05l-1.59.04c-1.7.04-2.75.06-3.22.02-.86-.06-1.46-.87-1.4-1.73.05-.43.21-.81.6-1.08.32-.27.7-.38 1.13-.32.33.04 1.27.01 2.83-.02l1.54-.04c1.24-.05 2.1-.05 2.6-.05 1.94 0 3.72.32 4.1 2.54.16.86 0 1.83-.49 2.97-.6 1.18-.86 1.78-.86 1.83a284.06 284.06 0 0 0-6.43 23.22c0 .1-.05.38-.16.87-.1.31-.2.68-.28 1.07l-.15.65-.16.73c-.1.4-.17.78-.28 1.16l-.48 2.54h.16c1.51.16 6.26.1 8.2-.1.87-.06 1.68.53 1.74 1.4.05.86-.54 1.67-1.4 1.73ZM82.6 23.05l1.23.08c-.22-4.16-.6-7.88-1.08-11.29-.6-3.88-1.9-5.94-4.65-5.67-.48.06-.75.06-.86.06-.1.16-.22.38-.27.7-.22 1.13-.22 2.48-.16 5.02.05 1.24.05 1.95.05 2.1 0 2.55.06 5.46.16 8.86.17-.05.38-.1.54-.1 1.17 0 3.5.14 5.04.24ZM9.36 83.05c-.13.15-.43.22-.88.22-.21 0-.68-.03-1.4-.08a30.93 30.93 0 0 0-4.48-.02l-1.64.1c-.21 0-.43-.05-.64-.16-.21-.1-.32-.33-.32-.68 0-.19.05-.44.16-.76.37-1.17.6-1.92.68-2.24.08-.32.15-1.17.2-2.56.05-1.39.08-2.41.08-3.08V62.67c0-.85-.02-1.67-.06-2.46a10.93 10.93 0 0 0-.58-3.16c-.13-.41-.2-.73-.2-.94 0-.32.12-.54.36-.66s.48-.18.72-.18c.7 0 1.27.03 1.72.1.45.07 1 .1 1.64.1.88 0 1.49-.03 1.82-.1.33-.07.66-.1.98-.1.56 0 1 .37 1.32 1.12l.72 1.72c.45 1.01.83 1.73 1.12 2.16.5.77 1.04 1.16 1.6 1.16.3 0 .61-.17.96-.52.45-.45 1.03-1.27 1.72-2.44.88-1.5 1.46-2.4 1.74-2.72a1.4 1.4 0 0 1 1.1-.48c.48 0 .87.03 1.16.08.3.05.75.08 1.36.08a36.09 36.09 0 0 0 3.36-.16c.35 0 .6.07.76.2.16.13.24.33.24.6 0 .77-.16 1.57-.48 2.4a11.7 11.7 0 0 0-.48 3.92v12.12c0 1.76.16 3.4.48 4.92l.38 1.68c.15.64.22 1.1.22 1.36 0 .24-.06.43-.18.58-.12.15-.37.22-.74.22-.27 0-.77-.03-1.52-.08a33.8 33.8 0 0 0-4.48 0c-.5.05-1.03.08-1.56.08-.7 0-1.04-.23-1.04-.68.35-1.1.64-2.2.88-3.34.24-1.13.36-2.47.36-4.02v-7.36c0-.5-.13-.76-.4-.76-.13 0-.35.2-.64.58l-.68.86-1.04 1.52c-.43.5-.88.76-1.36.76-.48 0-.89-.14-1.22-.42-.33-.28-.8-.94-1.38-1.98l-.52-.86c-.19-.3-.39-.46-.6-.46-.16 0-.26.06-.3.18-.04.12-.06.29-.06.5v7.36c0 1.47.12 2.77.36 3.92.08.43.3 1.15.64 2.16.16.53.24.95.24 1.24 0 .24-.07.43-.2.58Zm34.7-.02c-.41.16-.98.24-1.7.24l-4.8-.12-4.8-.08c-1.57 0-2.73.03-3.48.1s-1.27.1-1.56.1a2.5 2.5 0 0 1-.9-.16c-.28-.1-.42-.3-.42-.56 0-.77.12-1.39.36-1.84.53-1.01.8-2.75.8-5.2V62.67c0-1.63-.1-2.87-.28-3.72l-.72-2.68c0-.32.13-.57.4-.74.27-.17.7-.26 1.28-.26l2.88.12c.45 0 1.16.01 2.12.04l2 .04h3.16c.85 0 1.72-.04 2.6-.12l1.68-.08c.37 0 .67.08.9.24.23.16.34.47.34.92 0 .35-.03.83-.08 1.44s-.08 1.23-.08 1.84a10.26 10.26 0 0 0 .18 1.5l.18.88c.05.25.08.49.08.7 0 .83-.43 1.24-1.28 1.24-.37 0-.75-.1-1.12-.32l-.92-.64c-.99-.67-2.07-1-3.24-1-.96 0-1.68.19-2.16.56-.48.37-.72.83-.72 1.36 0 .61.28 1.04.84 1.28.56.24 1.33.36 2.32.36.4 0 1.07-.03 2.02-.08l1.5-.08c.93 0 1.7.11 2.3.34.6.23.9.67.9 1.34 0 .45-.23.85-.7 1.18-.47.33-1.26.5-2.38.5H36.4c-.56 0-.97.1-1.24.32-.27.21-.4.65-.4 1.32v6.08c0 .85.24 1.43.72 1.72.32.19.81.28 1.48.28h.52c.9 0 1.62-.04 2.14-.12.52-.08 1.15-.3 1.9-.68a17 17 0 0 0 .96-.52 2.82 2.82 0 0 1 1.36-.52c.37 0 .63.1.76.3.13.2.2.4.2.62 0 .27-.03.59-.1.96s-.1.84-.1 1.4l.08 2c0 .53-.2.88-.62 1.04Zm4.18.24 1.38-.06a44.7 44.7 0 0 1 4.34 0c.56.04 1.15.06 1.76.06.24 0 .46-.05.66-.14.2-.1.3-.27.3-.54-.3-.8-.59-1.61-.88-2.44-.27-.9-.4-1.96-.4-3.16v-8.88c0-.5.05-.86.14-1.06.1-.2.2-.3.34-.3.64 0 1.53.76 2.68 2.28 1.25 1.65 1.88 3.19 1.88 4.6v3.84c0 1.79-.15 2.92-.44 3.4-.3.48-.44 1-.44 1.56 0 .32.16.56.48.72.19.08.4.12.64.12l1.7-.1a24.5 24.5 0 0 1 3.38.02c.72.05 1.33.08 1.84.08.24 0 .45-.04.64-.12.19-.08.28-.27.28-.56l-.64-2.48a19.8 19.8 0 0 1-.24-3.48V62.71a22.93 22.93 0 0 1 .92-6.76c0-.45-.32-.68-.96-.68-.75 0-1.31.02-1.7.06-.39.04-1.11.06-2.18.06l-3.88-.12c-.5 0-.83.07-.96.2s-.2.3-.2.48c0 .1.08.25.24.44a4.95 4.95 0 0 1 1.16 1.98c.16.5.24 1 .24 1.5v.64c0 .13-.07.24-.2.32a.65.65 0 0 0-.16.04c-.16 0-.45-.24-.88-.72-.72-.8-1.44-1.53-2.16-2.2a17.82 17.82 0 0 0-2.2-1.88 3.76 3.76 0 0 0-2.04-.8l-1.2.08-1.36.04-1.72-.04-1.08-.08c-.59 0-.88.28-.88.84 0 .32.07.6.2.84.61 1.15.99 1.97 1.12 2.48.3 1.04.44 2.55.44 4.52v13.6c0 .77-.05 1.4-.16 1.88-.1.48-.28 1.01-.52 1.6a8.43 8.43 0 0 0-.48 1.48c0 .35.13.56.38.64.25.08.53.12.82.12Zm38.38-1.5c-1.53 1.21-3.8 1.82-6.82 1.82-3.5 0-5.93-.77-7.32-2.32-.99-1.1-1.48-2.65-1.48-4.68V61.95c0-.5-.03-1.19-.08-2.04-.05-.85-.12-1.43-.2-1.72l-.34-1.16a4.14 4.14 0 0 1-.22-1.12c0-.43.27-.64.8-.64.35 0 .85.02 1.52.06.6.04 1.34.06 2.25.06h.35c.88 0 1.55-.02 2-.06.45-.04.97-.06 1.56-.06.5 0 .76.21.76.64 0 .08-.05.25-.14.52a13.2 13.2 0 0 0-.5 1.92 49.4 49.4 0 0 0-.44 2.14 12.8 12.8 0 0 0-.12 2.02v12.6c0 .77.12 1.35.36 1.74.24.39.7.58 1.36.58.8 0 1.33-.3 1.6-.92.13-.32.2-.76.2-1.32v-14c0-.8-.02-1.41-.06-1.84a6.8 6.8 0 0 0-.7-2.4c-.16-.4-.24-.72-.24-.96s.06-.42.18-.54c.12-.12.34-.18.66-.18.7 0 1.33.01 1.9.04a478 478 0 0 1 1.66.08h.57a48.47 48.47 0 0 0 3.55-.12c.53 0 .8.21.8.64 0 .48-.1 1-.32 1.56-.53 1.41-.8 3.2-.8 5.36V76.2c0 2.5-.77 4.37-2.3 5.58Z" fill="#000"/><path d="M134.9 22.08c0-.7-.2-1.34-.47-1.96a70 70 0 0 0-9.33 1.76l-.02.2a4.91 4.91 0 0 0 9.81 0Z" fill="#000"/><path fill-rule="evenodd" clip-rule="evenodd" d="M174.14 26.54c-1.91 0-3.75-.44-5.47-1.3a41.76 41.76 0 0 0-4.47-1.86 7.36 7.36 0 0 1-14.59-1.3v-2.02a65.4 65.4 0 0 0-7.36-.44 62 62 0 0 0-2.78.08c.2.78.33 1.57.33 2.38a9.8 9.8 0 0 1-19.5 1.3c-1.59.58-3.1 1.19-4.45 1.86a12.1 12.1 0 0 1-5.57 1.24l-.16-.02 5.15 9.56v25.31A7.37 7.37 0 0 0 129.8 63l10.3 19.45a2.45 2.45 0 0 0 4.31 0l7.37-14.02a9.81 9.81 0 1 1-2.17-19.37c4.21 0 7.77 2.67 9.16 6.39l15.59-28.94-.1.01a.53.53 0 0 1-.12.02Zm-36.8 20.07a7.37 7.37 0 0 1-7.35-7.36 2.45 2.45 0 1 1 4.9 0 2.45 2.45 0 0 0 4.91 0 2.45 2.45 0 1 1 4.9 0c0 4.06-3.3 7.36-7.35 7.36Zm12.27-9.81a2.45 2.45 0 1 0 4.9 0 2.45 2.45 0 0 0-4.9 0Z" fill="#000"/><path d="M149.61 53.97a4.91 4.91 0 1 0 .02 9.83 4.91 4.91 0 0 0-.02-9.83ZM180.73 17.56a7.37 7.37 0 0 0-3.3-9.87C167.97 2.94 154.49 0 142.27 0c-12.22 0-25.7 2.94-35.19 7.69a7.37 7.37 0 0 0-3.3 9.87 7.5 7.5 0 0 0 9.88 3.3c7.46-3.74 18.69-6.15 28.6-6.15 3.99 0 8.19.4 12.27 1.12v6.25a2.45 2.45 0 0 0 4.9 0v-5.22a55.4 55.4 0 0 1 11.43 4 7.35 7.35 0 0 0 9.88-3.3Z" fill="#000"/></svg>